HIERARCHY
ROOT joint_0
{
	OFFSET 0.000000 0.000000 0.000000
	CHANNELS 6 Xposition Yposition Zposition Zrotation Yrotation Xrotation 
	JOINT joint_1
	{
		OFFSET 13.542969 -4.074463 123.986084
		CHANNELS 3 Zrotation Yrotation Xrotation
		JOINT joint_2
		{
			OFFSET -0.108154 -3.018066 113.860962
			CHANNELS 3 Zrotation Yrotation Xrotation
			JOINT joint_3
			{
				OFFSET -1.139648 -3.876465 113.702026
				CHANNELS 3 Zrotation Yrotation Xrotation
				JOINT joint_4
				{
					OFFSET 13.593506 -8.582153 160.876953
					CHANNELS 3 Zrotation Yrotation Xrotation
					JOINT joint_5
					{
						OFFSET 26.480957 -11.565674 94.427979
						CHANNELS 3 Zrotation Yrotation Xrotation
						End Site
						{
							OFFSET 0.000000 0.000000 0.000000
						}
					}
				}
				JOINT joint_6
				{
					OFFSET 3.003662 -39.658691 88.713989
					CHANNELS 3 Zrotation Yrotation Xrotation
					JOINT joint_7
					{
						OFFSET -25.253906 -162.506348 -28.477051
						CHANNELS 3 Zrotation Yrotation Xrotation
						JOINT joint_8
						{
							OFFSET 23.083252 -8.502686 -295.281982
							CHANNELS 3 Zrotation Yrotation Xrotation
							JOINT joint_9
							{
								OFFSET 20.205566 -32.167908 -263.458008
								CHANNELS 3 Zrotation Yrotation Xrotation
								End Site
								{
									OFFSET 0.000000 0.000000 0.000000
								}
							}
						}
					}
				}
				JOINT joint_10
				{
					OFFSET 12.313232 30.012939 91.642944
					CHANNELS 3 Zrotation Yrotation Xrotation
					JOINT joint_11
					{
						OFFSET 31.960205 162.667969 -19.398926
						CHANNELS 3 Zrotation Yrotation Xrotation
						JOINT joint_12
						{
							OFFSET 51.325195 40.249023 -289.038086
							CHANNELS 3 Zrotation Yrotation Xrotation
							JOINT joint_13
							{
								OFFSET 70.170898 60.433594 -249.556030
								CHANNELS 3 Zrotation Yrotation Xrotation
								End Site
								{
									OFFSET 0.000000 0.000000 0.000000
								}
							}
						}
					}
				}
			}
		}
	}
	JOINT joint_14
	{
		OFFSET -15.093262 -91.803833 -113.326904
		CHANNELS 3 Zrotation Yrotation Xrotation
		JOINT joint_15
		{
			OFFSET 2.288818 -12.306763 -494.206055
			CHANNELS 3 Zrotation Yrotation Xrotation
			JOINT joint_16
			{
				OFFSET -54.691650 0.383423 -424.447006
				CHANNELS 3 Zrotation Yrotation Xrotation
				JOINT joint_17
				{
					OFFSET 202.154297 -21.791382 -80.181999
					CHANNELS 3 Zrotation Yrotation Xrotation
					End Site
					{
						OFFSET 0.000000 0.000000 0.000000
					}
				}
			}
		}
	}
	JOINT joint_18
	{
		OFFSET 10.704102 91.957275 -113.713013
		CHANNELS 3 Zrotation Yrotation Xrotation
		JOINT joint_19
		{
			OFFSET 0.427490 1.374878 -494.359924
			CHANNELS 3 Zrotation Yrotation Xrotation
			JOINT joint_20
			{
				OFFSET -53.071777 2.769531 -424.643028
				CHANNELS 3 Zrotation Yrotation Xrotation
				JOINT joint_21
				{
					OFFSET 200.264648 -28.253052 -82.862999
					CHANNELS 3 Zrotation Yrotation Xrotation
					End Site
					{
						OFFSET 0.000000 0.000000 0.000000
					}
				}
			}
		}
	}
}
MOTION
Frames: 12
Frame Time: 0.016667
-2969.975098 1206.860596 1143.057983 3.152196 -1.777832 -1.125558 -0.021317 -0.728125 -0.350159 -0.010381 0.088478 0.049108 -0.020260 -0.147489 -0.052301 0.777274 3.089974 -1.448434 0.000000 0.000000 0.000000 0.496351 0.163645 1.351658 -0.130114 1.004088 -3.354374 0.521653 -2.022224 3.837992 0.000000 0.000000 0.000000 0.433121 1.372766 -1.573983 0.611971 0.850165 1.174228 0.734956 1.187756 1.606115 0.000000 0.000000 0.000000 -1.058887 4.771049 1.198738 -0.751250 -5.490077 -0.362149 -0.745539 0.897525 -0.197611 0.000000 0.000000 0.000000 0.053935 -0.237204 7.387600 0.074542 -3.169754 -0.311881 0.037644 3.140005 0.458269 0.000000 0.000000 0.000000 
-2969.864502 1206.755615 1143.041016 3.149320 -1.771048 -1.116852 -0.023494 -0.734704 -0.348652 -0.012492 0.089717 0.048615 -0.022450 -0.148588 -0.051580 0.778311 3.096360 -1.449484 0.000000 0.000000 0.000000 0.488563 0.183954 1.344240 -0.126626 1.017422 -3.329336 0.524226 -2.042255 3.840292 0.000000 0.000000 0.000000 0.422033 1.367066 -1.567985 0.610347 0.852024 1.147792 0.742204 1.202294 1.619718 0.000000 0.000000 0.000000 -1.054971 4.759438 1.196908 -0.748095 -5.472607 -0.364829 -0.742942 0.899595 -0.196366 0.000000 0.000000 0.000000 0.053539 -0.242181 7.383071 0.074068 -3.167487 -0.310293 0.037134 3.162333 0.461204 0.000000 0.000000 0.000000 
-2969.744385 1206.654541 1143.021973 3.144638 -1.763150 -1.105644 -0.025439 -0.743395 -0.348974 -0.014329 0.091284 0.048313 -0.024421 -0.150326 -0.052423 0.778937 3.103483 -1.448716 0.000000 0.000000 0.000000 0.481424 0.205887 1.336494 -0.122933 1.032201 -3.302982 0.527084 -2.063993 3.843850 0.000000 0.000000 0.000000 0.410762 1.362263 -1.561056 0.608358 0.854687 1.122672 0.747550 1.214466 1.628485 0.000000 0.000000 0.000000 -1.051279 4.748238 1.190483 -0.745078 -5.457784 -0.364183 -0.740067 0.901991 -0.194976 0.000000 0.000000 0.000000 0.053609 -0.247964 7.374429 0.073987 -3.164731 -0.306433 0.037262 3.186059 0.464596 0.000000 0.000000 0.000000 
-2969.605713 1206.561523 1143.003052 3.138976 -1.753723 -1.091784 -0.028447 -0.756752 -0.352661 -0.017125 0.093949 0.049384 -0.027455 -0.153333 -0.053302 0.780324 3.111828 -1.450110 0.000000 0.000000 0.000000 0.478885 0.230713 1.325662 -0.118975 1.049936 -3.275200 0.530570 -2.088891 3.851239 0.000000 0.000000 0.000000 0.401974 1.360464 -1.556655 0.606039 0.858728 1.101520 0.749618 1.222167 1.629262 0.000000 0.000000 0.000000 -1.048432 4.739818 1.178419 -0.742628 -5.450227 -0.358958 -0.737165 0.906554 -0.193340 0.000000 0.000000 0.000000 0.053693 -0.253695 7.360950 0.073844 -3.163283 -0.299246 0.037746 3.211135 0.468322 0.000000 0.000000 0.000000 
-2969.457520 1206.470459 1142.982056 3.132031 -1.743464 -1.075551 -0.031631 -0.771175 -0.359457 -0.020099 0.095504 0.052489 -0.030634 -0.155463 -0.056391 0.781024 3.119380 -1.449330 0.000000 0.000000 0.000000 0.477984 0.256728 1.314619 -0.114794 1.068902 -3.246298 0.534419 -2.115954 3.860299 0.000000 0.000000 0.000000 0.394412 1.359156 -1.551066 0.603193 0.863084 1.081408 0.749668 1.227256 1.624993 0.000000 0.000000 0.000000 -1.045963 4.732139 1.162261 -0.740460 -5.445243 -0.350870 -0.734180 0.911434 -0.191637 0.000000 0.000000 0.000000 0.054054 -0.259909 7.343692 0.073910 -3.161589 -0.289956 0.038674 3.237589 0.472423 0.000000 0.000000 0.000000 
-2969.310547 1206.372192 1142.954956 3.122566 -1.732953 -1.055704 -0.034586 -0.783774 -0.368910 -0.022923 0.095045 0.051254 -0.033502 -0.157667 -0.056452 0.781151 3.132611 -1.444110 0.000000 0.000000 0.000000 0.476947 0.283144 1.305496 -0.110409 1.088503 -3.217346 0.538406 -2.145182 3.867553 0.000000 0.000000 0.000000 0.390612 1.356777 -1.544683 0.600039 0.866232 1.060320 0.749818 1.232365 1.621089 0.000000 0.000000 0.000000 -1.042724 4.721749 1.142408 -0.737712 -5.435844 -0.342353 -0.730583 0.913408 -0.190008 0.000000 0.000000 0.000000 0.055150 -0.267311 7.321987 0.074643 -3.158095 -0.278907 0.040412 3.266309 0.477171 0.000000 0.000000 0.000000 
-2969.206787 1206.303711 1142.932007 3.111701 -1.723071 -1.033569 -0.038640 -0.790572 -0.383382 -0.027076 0.088262 0.045114 -0.037112 -0.153500 -0.051965 0.779451 3.152983 -1.429328 0.000000 0.000000 0.000000 0.458294 0.283675 1.312725 -0.114010 1.094894 -3.264911 0.544988 -2.156517 3.942421 0.000000 0.000000 0.000000 0.395832 1.350109 -1.541245 0.596614 0.863025 1.041147 0.750741 1.237891 1.619639 0.000000 0.000000 0.000000 -1.038347 4.704989 1.118247 -0.734278 -5.417104 -0.333688 -0.726332 0.912250 -0.188460 0.000000 0.000000 0.000000 0.056921 -0.278033 7.294945 0.075997 -3.151782 -0.266981 0.042766 3.299581 0.482810 0.000000 0.000000 0.000000 
-2969.103027 1206.226074 1142.904053 3.098264 -1.712794 -1.007815 -0.042786 -0.796003 -0.401608 -0.031406 0.078885 0.036152 -0.040672 -0.147359 -0.045691 0.776458 3.175906 -1.408816 0.000000 0.000000 0.000000 0.440194 0.283542 1.323299 -0.117518 1.101341 -3.313238 0.551641 -2.169200 4.015768 0.000000 0.000000 0.000000 0.406334 1.341840 -1.536261 0.592735 0.858025 1.021050 0.751572 1.243133 1.618118 0.000000 0.000000 0.000000 -1.033087 4.685469 1.090724 -0.730156 -5.394029 -0.325007 -0.721418 0.908312 -0.186951 0.000000 0.000000 0.000000 0.059586 -0.290113 7.263681 0.078185 -3.143439 -0.253657 0.046042 3.334991 0.489123 0.000000 0.000000 0.000000 
-2968.881104 1206.015991 1142.838989 3.079275 -1.698106 -0.972974 -0.042255 -0.815174 -0.422933 -0.030640 0.079879 0.031237 -0.039949 -0.149638 -0.042862 0.773485 3.185866 -1.393956 0.000000 0.000000 0.000000 0.469422 0.357381 1.297342 -0.096503 1.144984 -3.134451 0.550897 -2.242751 3.879167 0.000000 0.000000 0.000000 0.408054 1.335508 -1.516660 0.587585 0.861453 0.987343 0.752232 1.250464 1.614193 0.000000 0.000000 0.000000 -1.027288 4.668379 1.061902 -0.725287 -5.373532 -0.317510 -0.715866 0.899162 -0.185752 0.000000 0.000000 0.000000 0.064491 -0.300100 7.230591 0.082551 -3.134244 -0.239400 0.051566 3.365003 0.495590 0.000000 0.000000 0.000000 
-2968.613281 1205.553467 1142.743042 2.982612 -1.729506 -0.897219 -0.053921 -0.842496 -0.469773 -0.041365 0.103526 0.034318 -0.052454 -0.169019 -0.048821 0.782786 3.214713 -1.414234 0.000000 0.000000 0.000000 0.511911 0.640627 1.245398 -0.004488 1.328846 -2.599513 0.593477 -2.816984 3.516292 0.000000 0.000000 0.000000 0.412750 1.365952 -1.517816 0.597779 0.885816 1.021257 0.752643 1.279973 1.589974 0.000000 0.000000 0.000000 -0.998951 4.685312 0.998393 -0.697026 -5.332045 -0.308777 -0.688063 0.883149 -0.176506 0.000000 0.000000 0.000000 0.092165 -0.240465 7.168044 0.108779 -3.132368 -0.219975 0.078683 3.391141 0.510298 0.000000 0.000000 0.000000 
-2968.227051 1204.957397 1142.609985 2.880573 -1.756441 -0.812289 -0.061437 -0.883656 -0.520032 -0.047510 0.138321 0.042505 -0.061257 -0.197107 -0.059115 0.792382 3.229279 -1.441430 0.000000 0.000000 0.000000 0.602343 0.993272 1.172736 0.107439 1.550958 -1.854598 0.626667 -3.449788 2.945609 0.000000 0.000000 0.000000 0.410996 1.398210 -1.504294 0.606683 0.918159 1.041803 0.752853 1.311794 1.563048 0.000000 0.000000 0.000000 -0.970191 4.704870 0.933637 -0.668124 -5.293184 -0.301380 -0.659740 0.862064 -0.167601 0.000000 0.000000 0.000000 0.121942 -0.178780 7.103579 0.137107 -3.129411 -0.199569 0.107981 3.411941 0.525140 0.000000 0.000000 0.000000 
-2967.383789 1204.461670 1142.395020 2.982506 -1.623676 -0.807150 -0.009525 -0.970550 -0.507144 0.005817 0.159490 0.046878 -0.009590 -0.218767 -0.056503 0.769299 3.124932 -1.404346 0.000000 0.000000 0.000000 0.890231 1.076274 1.011835 0.125944 1.531822 -1.054069 0.490763 -2.866400 1.999349 0.000000 0.000000 0.000000 0.359496 1.333447 -1.362387 0.563859 0.930893 0.795664 0.752463 1.284605 1.585616 0.000000 0.000000 0.000000 -1.004615 4.637039 0.969988 -0.703799 -5.334641 -0.306564 -0.693601 0.840416 -0.183307 0.000000 0.000000 0.000000 0.093916 -0.312855 7.121526 0.110013 -3.103144 -0.190321 0.083023 3.418410 0.515882 0.000000 0.000000 0.000000 
